<svg width="54" height="51" viewBox="0 0 54 51" fill="none" xmlns="http://www.w3.org/2000/svg">
<path d="M52.62 43.59H47.56V37.99C47.56 37.69 47.26 37.39 46.95 37.39H40.58V32.99C40.58 32.69 40.28 32.39 39.97 32.39H34.31V28.59C34.31 28.29 34.01 27.99 33.7 27.99H26.72V15.39H34.31C34.31 18.89 34.31 18.59 34.31 18.69C34.31 18.79 34.31 18.79 34.31 18.79C34.31 18.89 34.31 18.79 34.41 18.89C34.41 18.89 34.41 18.99 34.51 18.99C34.61 19.09 34.71 19.09 34.81 19.09C36.63 19.09 45.73 19.09 47.45 19.09C47.96 19.09 48.26 18.49 47.96 18.09L43.21 12.19L47.96 6.29001C48.26 5.89001 47.96 5.29001 47.45 5.29001H37.94V3.39001C37.94 3.09001 37.64 2.79001 37.33 2.79001H26.71V0.890015C26.71 0.590015 26.41 0.290009 26.1 0.290009H23.57C23.27 0.290009 22.96 0.590015 22.96 0.890015V27.79H20.43C20.13 27.79 19.82 28.09 19.82 28.39V32.19H14.16C13.86 32.19 13.55 32.49 13.55 32.79V37.19H7.17996C6.87996 37.19 6.56998 37.49 6.56998 37.79V43.39H1.50996C1.20996 43.39 0.899963 43.69 0.899963 43.99V50.29C0.899963 50.59 1.19996 50.89 1.50996 50.89H52.7C53 50.89 53.31 50.59 53.31 50.29V43.99C53.23 43.79 53.02 43.59 52.62 43.59ZM36.33 15.39L35.52 16.49V15.39H36.33ZM46.25 6.69L42 11.89C41.8 12.09 41.8 12.49 42 12.69L46.25 17.89H36.13C38.15 14.79 38.05 15.09 38.05 14.99C38.05 14.99 38.05 14.89 38.05 14.79V6.69H46.25ZM36.84 4.19V14.19H26.72V7.29001H33.7C34 7.29001 34.31 6.99 34.31 6.69C34.31 6.39 34.01 6.09 33.7 6.09H26.72V4.19H36.84ZM24.19 1.69H25.51C25.51 4.89 25.51 25.19 25.51 27.99H24.19V1.69ZM21.06 29.19C25.61 29.19 29.05 29.19 33.1 29.19V32.29H21.06V29.19ZM14.79 33.59C17.52 33.59 36.84 33.59 39.47 33.59V37.39H14.79V33.59ZM52.01 49.79H2.13997V44.79H7.19997C7.49997 44.79 7.80997 44.49 7.80997 44.19V38.59C9.52997 38.59 44.83 38.59 46.45 38.59V43.59H36.33C36.03 43.59 35.72 43.89 35.72 44.19C35.72 44.49 36.02 44.79 36.33 44.79C39.67 44.79 48.77 44.79 52.11 44.79L52.01 49.79Z" fill="#D4FC69"/>
</svg>
