<svg width="52" height="54" viewBox="0 0 52 54" fill="none" xmlns="http://www.w3.org/2000/svg">
<path d="M39.59 32.54C39.39 32.34 38.98 32.34 38.68 32.54L37.67 33.54L35.95 31.84C41.62 24.14 40.81 13.44 34.03 6.64001C30.29 2.94001 25.33 0.940002 20.07 0.940002C9.25001 0.940002 0.340027 9.64 0.340027 20.44C0.340027 31.34 9.34001 39.84 20.07 39.84C24.12 39.84 28.16 38.64 31.7 36.14L33.42 37.74L32.41 38.74C32.21 38.94 32.21 39.34 32.41 39.64L42.93 50.04C44.75 51.84 47.79 51.84 49.61 50.04L50.01 49.64C51.83 47.84 51.83 44.84 50.01 43.04L39.59 32.54ZM32.2 34.84C32 34.64 31.59 34.64 31.39 34.74C24.11 40.34 13.59 39.74 7.10999 33.24C3.66999 29.84 1.75 25.24 1.75 20.34C1.75 10.24 9.93997 2.14001 20.16 2.14001C25.12 2.14001 29.67 4.04 33.21 7.44C39.79 13.94 40.39 24.24 34.73 31.44C34.53 31.64 34.53 32.04 34.83 32.24L36.85 34.24L34.42 36.64L32.2 34.84ZM49.2 48.74L48.8 49.14C47.48 50.44 45.26 50.44 43.84 49.14L33.72 39.14L39.08 33.84L49.2 43.84C50.51 45.24 50.51 47.34 49.2 48.74Z" fill="#D4FC69"/>
<path d="M6.90997 48.04C6.90997 48.34 7.21002 48.64 7.52002 48.64H30.89C31.19 48.64 31.5 48.34 31.5 48.04C31.5 47.74 31.2 47.44 30.89 47.44H7.52002C7.21002 47.34 6.90997 47.65 6.90997 48.04Z" fill="#D4FC69"/>
<path d="M37.87 50.54C37.87 50.24 37.57 49.94 37.26 49.94H3.78003C3.48003 49.94 3.16998 50.24 3.16998 50.54C3.16998 50.84 3.47003 51.14 3.78003 51.14H37.26C37.66 51.15 37.87 50.84 37.87 50.54Z" fill="#D4FC69"/>
<path d="M42.92 52.34H9.44C9.14 52.34 8.83002 52.64 8.83002 52.94C8.83002 53.24 9.13 53.54 9.44 53.54H42.92C43.22 53.54 43.53 53.24 43.53 52.94C43.63 52.65 43.33 52.34 42.92 52.34Z" fill="#D4FC69"/>
<path d="M20.06 4.94C11.46 4.94 4.38 11.84 4.38 20.44C4.38 28.94 11.36 35.84 20.06 35.84C28.66 35.84 35.64 28.94 35.64 20.44C35.74 11.84 28.76 4.94 20.06 4.94ZM20.06 6.23999C29.27 6.23999 36.04 14.64 34.02 23.54V20.54C34.02 20.24 33.72 19.94 33.41 19.94H29.57C29.27 19.94 28.96 20.24 28.96 20.54V31.54C28.76 31.74 28.56 31.84 28.35 32.04V23.74C28.35 23.44 28.05 23.14 27.74 23.14H23.9C23.6 23.14 23.29 23.44 23.29 23.74V34.34C23.09 34.34 22.89 34.44 22.68 34.44V12.44C22.68 12.14 22.38 11.84 22.07 11.84H18.23C17.93 11.84 17.62 12.14 17.62 12.44V34.44C17.42 34.44 17.22 34.34 17.01 34.34V18.64C17.01 18.34 16.71 18.04 16.4 18.04H12.56C12.26 18.04 11.95 18.34 11.95 18.64V32.14C11.75 32.04 11.55 31.84 11.34 31.64V21.74C11.34 21.44 11.04 21.14 10.73 21.14H6.89001C6.59001 21.14 6.28003 21.44 6.28003 21.74V24.34C5.88003 23.14 5.77002 21.84 5.77002 20.44C5.70002 12.54 12.17 6.23999 20.06 6.23999ZM27.14 32.74C26.33 33.14 25.52 33.54 24.61 33.84V24.24H27.14V32.74ZM15.81 33.94C14.9 33.64 14.09 33.34 13.28 32.84V19.24H15.81V33.94ZM7.52002 27.34V22.44H10.05V30.64C9.13999 29.65 8.23002 28.54 7.52002 27.34ZM18.95 34.54V13.04H21.48V34.54C20.67 34.54 19.86 34.65 18.95 34.54ZM30.28 30.34V21.14H32.81V26.94C32.2 28.15 31.29 29.34 30.28 30.34Z" fill="#D4FC69"/>
</svg>
