<svg width="48" height="55" viewBox="0 0 48 55" fill="none" xmlns="http://www.w3.org/2000/svg">
<path d="M43.48 33.54L45.3 31.74L46.61 30.44C48.13 28.94 48.13 26.64 46.61 25.14C45.09 23.64 42.77 23.64 41.25 25.14L37.81 28.54V8.04001C37.81 5.84001 35.99 4.04001 33.76 4.04001H32.14V0.940002C32.14 0.640002 31.84 0.339996 31.53 0.339996C31.22 0.339996 30.92 0.640002 30.92 0.940002V4.04001H25.86V0.940002C25.86 0.640002 25.56 0.339996 25.25 0.339996C24.95 0.339996 24.64 0.640002 24.64 0.940002V4.04001H19.58V0.940002C19.58 0.640002 19.28 0.339996 18.97 0.339996C18.67 0.339996 18.36 0.640002 18.36 0.940002V4.04001H13.3V0.940002C13.3 0.640002 13 0.339996 12.69 0.339996C12.39 0.339996 12.08 0.640002 12.08 0.940002V4.04001H7.02002V0.940002C7.02002 0.640002 6.71997 0.339996 6.40997 0.339996C6.10997 0.339996 5.79999 0.640002 5.79999 0.940002V4.04001H4.17999C1.94999 4.04001 0.130005 5.84001 0.130005 8.04001V46.24C0.130005 48.44 1.94999 50.24 4.17999 50.24H17.53L16.92 53.74C16.82 54.14 17.22 54.54 17.63 54.44L22.99 53.54C23.09 53.54 23.19 53.44 23.29 53.34L26.43 50.24H33.71C35.94 50.24 37.76 48.44 37.76 46.24V39.14C38.53 38.44 42.78 34.24 43.48 33.54ZM25.68 49.34L24.37 48.04L40.86 31.74L42.17 33.04L25.68 49.34ZM22.85 45.04L33.78 34.24C35.4 32.64 36.81 31.24 38.53 29.54L39.84 30.84L23.45 47.14L22.14 45.84C22.14 45.74 22.85 45.04 22.85 45.04ZM40.35 27.74L43.89 31.24L42.98 32.14L39.44 28.64L40.35 27.74ZM42.17 25.94C43.18 24.94 44.8 24.94 45.71 25.94C46.72 26.94 46.72 28.54 45.71 29.44L44.9 30.44L41.36 26.94L42.17 25.94ZM3.92999 49.04C2.40999 49.04 1.09998 47.84 1.09998 46.24V8.04001C1.09998 6.54001 2.30999 5.23999 3.92999 5.23999H5.54999V5.94C4.43999 6.24 3.63 7.24 3.63 8.34V9.64001C3.63 11.04 4.73997 12.14 6.15997 12.14C7.57997 12.14 8.69 11.04 8.69 9.64001V8.34C8.69 7.14 7.88002 6.24 6.77002 5.94V5.23999H11.83V5.94C10.72 6.24 9.90997 7.24 9.90997 8.34V9.64001C9.90997 11.04 11.02 12.14 12.44 12.14C13.86 12.14 14.97 11.04 14.97 9.64001V8.34C14.97 7.14 14.16 6.24 13.05 5.94V5.23999H18.11V5.94C17 6.24 16.19 7.24 16.19 8.34V9.64001C16.19 11.04 17.3 12.14 18.72 12.14C20.14 12.14 21.25 11.04 21.25 9.64001V8.34C21.25 7.14 20.44 6.24 19.33 5.94V5.23999H24.39V5.94C23.28 6.24 22.47 7.24 22.47 8.34V9.64001C22.47 11.04 23.58 12.14 25 12.14C26.42 12.14 27.53 11.04 27.53 9.64001V8.34C27.53 7.14 26.72 6.24 25.61 5.94V5.23999H30.67V5.94C29.56 6.24 28.75 7.24 28.75 8.34V9.64001C28.75 11.04 29.86 12.14 31.28 12.14C32.7 12.14 33.81 11.04 33.81 9.64001V8.34C33.81 7.14 33 6.24 31.89 5.94V5.23999H33.81C35.33 5.23999 36.64 6.44001 36.64 8.04001V29.74L34.11 32.24V17.74C34.11 17.44 33.81 17.14 33.5 17.14C33.2 17.14 32.79 17.44 32.79 17.74V33.54L22.17 44.04H4.96997V17.74C4.96997 17.44 4.66999 17.14 4.35999 17.14C4.05999 17.14 3.75 17.44 3.75 17.74V44.64C3.75 44.94 4.04999 45.24 4.35999 45.24H20.95C17.71 48.44 18.42 47.74 18.12 48.04C18.02 48.14 17.92 48.24 17.92 48.34L17.82 48.94H3.96002V49.04H3.92999ZM6.26001 7.14001C6.97001 7.14001 7.57001 7.74 7.57001 8.44V9.73999C7.57001 10.44 6.96001 11.04 6.26001 11.04C5.55001 11.04 4.94 10.44 4.94 9.73999V8.44C4.94 7.64 5.55001 7.14001 6.26001 7.14001ZM12.53 7.14001C13.24 7.14001 13.85 7.74 13.85 8.44V9.73999C13.85 10.44 13.24 11.04 12.53 11.04C11.82 11.04 11.21 10.44 11.21 9.73999V8.44C11.32 7.64 11.82 7.14001 12.53 7.14001ZM18.9 7.14001C19.61 7.14001 20.22 7.74 20.22 8.44V9.73999C20.22 10.44 19.61 11.04 18.9 11.04C18.19 11.04 17.59 10.34 17.59 9.64001V8.34C17.59 7.64 18.19 7.14001 18.9 7.14001ZM25.17 7.14001C25.88 7.14001 26.48 7.74 26.48 8.44V9.73999C26.48 10.44 25.87 11.04 25.17 11.04C24.47 11.04 23.86 10.44 23.86 9.73999V8.44C23.96 7.64 24.47 7.14001 25.17 7.14001ZM31.55 7.14001C32.26 7.14001 32.86 7.74 32.86 8.44V9.73999C32.86 10.44 32.25 11.04 31.55 11.04C30.85 11.04 30.24 10.44 30.24 9.73999V8.44C30.23 7.64 30.84 7.14001 31.55 7.14001ZM22.65 52.34L18.4 53.04L19.11 48.84L21.34 46.64L24.88 50.14L22.65 52.34ZM36.61 46.24C36.61 47.74 35.4 49.04 33.78 49.04H27.91L31.75 45.24H33.47C33.77 45.24 34.08 44.94 34.08 44.64V42.94L36.61 40.44V46.24Z" fill="#D4FC69"/>
<path d="M8.78999 20.24H29.02C29.32 20.24 29.63 19.94 29.63 19.64C29.63 19.34 29.33 19.04 29.02 19.04H8.78999C8.48999 19.04 8.18 19.34 8.18 19.64C8.08 19.94 8.37999 20.24 8.78999 20.24Z" fill="#D4FC69"/>
<path d="M8.78999 22.74H29.02C29.32 22.74 29.63 22.44 29.63 22.14C29.63 21.84 29.33 21.54 29.02 21.54H8.78999C8.48999 21.54 8.18 21.84 8.18 22.14C8.08 22.44 8.37999 22.74 8.78999 22.74Z" fill="#D4FC69"/>
<path d="M8.78999 25.24H29.02C29.32 25.24 29.63 24.94 29.63 24.64C29.63 24.34 29.33 24.04 29.02 24.04H8.78999C8.48999 24.04 8.18 24.34 8.18 24.64C8.08 24.94 8.37999 25.24 8.78999 25.24Z" fill="#D4FC69"/>
<path d="M8.78999 27.74H29.02C29.32 27.74 29.63 27.44 29.63 27.14C29.63 26.84 29.33 26.54 29.02 26.54H8.78999C8.48999 26.54 8.18 26.84 8.18 27.14C8.08 27.44 8.37999 27.74 8.78999 27.74Z" fill="#D4FC69"/>
<path d="M8.78999 30.24H29.02C29.32 30.24 29.63 29.94 29.63 29.64C29.63 29.34 29.33 29.04 29.02 29.04H8.78999C8.48999 29.04 8.18 29.34 8.18 29.64C8.08 29.94 8.37999 30.24 8.78999 30.24Z" fill="#D4FC69"/>
<path d="M8.78999 32.74H19.51C19.81 32.74 20.12 32.44 20.12 32.14C20.12 31.84 19.82 31.54 19.51 31.54H8.78999C8.48999 31.54 8.18 31.84 8.18 32.14C8.08 32.44 8.37999 32.74 8.78999 32.74Z" fill="#D4FC69"/>
<path d="M8.78999 35.24H15.16C15.46 35.24 15.77 34.94 15.77 34.64C15.77 34.34 15.47 34.04 15.16 34.04H8.78999C8.48999 34.04 8.18 34.34 8.18 34.64C8.08 34.94 8.37999 35.24 8.78999 35.24Z" fill="#D4FC69"/>
</svg>
