<svg xmlns="http://www.w3.org/2000/svg" width="248" height="440" viewBox="0 0 248 440"><rect width="100%" height="100%" fill="#FFA500"/><path fill="#FFFFFF" d="M58.85 228.13h6.12q.66 0 1.05.38.38.37.38.98v2.44H50.03v-1.35q0-.42.18-.87.17-.45.55-.82l7.24-7.26q.91-.92 1.63-1.76t1.2-1.67q.47-.82.73-1.67t.26-1.79q0-.86-.25-1.51t-.7-1.1q-.46-.45-1.09-.67-.64-.22-1.43-.22-.73 0-1.34.21-.62.2-1.1.57t-.81.87q-.33.49-.49 1.09-.29.76-.73 1-.45.25-1.29.12l-2.14-.38q.24-1.72.95-3.01.71-1.3 1.78-2.16 1.06-.87 2.44-1.31 1.38-.43 2.96-.43 1.65 0 3.02.48 1.37.49 2.34 1.38.98.89 1.52 2.15.55 1.25.55 2.79 0 1.32-.39 2.44t-1.04 2.14q-.65 1.03-1.53 1.98-.87.96-1.83 1.95l-5.38 5.49q.78-.23 1.55-.35.76-.13 1.46-.13m13.56-5.19h7.26v-7.81q0-1.1.15-2.44zm10.81 0h3v2.36q0 .33-.22.57-.21.24-.61.24h-2.17v5.82h-3.55v-5.82H69.6q-.41 0-.72-.26-.32-.26-.4-.64l-.43-2.06 11.31-15.1h3.86zm13.41 6.07q1.01 0 1.77-.29t1.28-.8q.51-.51.78-1.22.26-.71.26-1.54 0-1.96-1.09-2.97-1.09-1-3-1t-3 1q-1.09 1.01-1.09 2.97 0 .83.26 1.54.27.71.79 1.22t1.28.8q.75.29 1.76.29m0-18.13q-.91 0-1.57.28t-1.09.75q-.44.47-.65 1.08-.2.61-.2 1.28 0 .71.17 1.38t.59 1.19q.41.52 1.08.83.68.32 1.67.32t1.67-.32q.67-.31 1.09-.83.41-.52.58-1.19.18-.67.18-1.38 0-.67-.22-1.28-.21-.61-.64-1.08t-1.09-.75-1.57-.28m4.03 8.61q2.17.71 3.21 2.17t1.04 3.57q0 1.58-.6 2.87t-1.69 2.2q-1.09.9-2.61 1.4-1.53.49-3.38.49t-3.37-.49q-1.53-.5-2.62-1.4-1.09-.91-1.69-2.2t-.6-2.87q0-2.11 1.04-3.57t3.21-2.17q-1.73-.73-2.59-2.06-.87-1.34-.87-3.22 0-1.35.55-2.53.56-1.17 1.55-2.03.99-.87 2.36-1.36 1.38-.48 3.03-.48t3.03.48q1.38.49 2.37 1.36.99.86 1.54 2.03.55 1.18.55 2.53 0 1.88-.86 3.22-.87 1.33-2.6 2.06m30.92 6.98-2.16 2.13-5.6-5.6-5.64 5.63-2.16-2.13 5.64-5.66-5.38-5.38 2.15-2.14 5.38 5.38 5.34-5.35 2.18 2.15-5.36 5.36zm14.29-3.53h7.26v-7.81q0-1.1.15-2.44zm10.8 0h3.01v2.36q0 .33-.22.57-.21.24-.61.24h-2.18v5.82h-3.54v-5.82h-10.07q-.41 0-.72-.26-.32-.26-.4-.64l-.43-2.06 11.3-15.1h3.86zm8.34 0h7.26v-7.81q0-1.1.15-2.44zm10.8 0h3.01v2.36q0 .33-.22.57-.21.24-.61.24h-2.18v5.82h-3.54v-5.82H162.2q-.41 0-.72-.26-.32-.26-.4-.64l-.43-2.06 11.3-15.1h3.86zm22.16-2.94q0 3.12-.66 5.42-.67 2.3-1.85 3.8-1.18 1.51-2.79 2.24t-3.47.73q-1.87 0-3.46-.73t-2.76-2.24q-1.18-1.5-1.84-3.8t-.66-5.42q0-3.13.66-5.43.66-2.29 1.84-3.79 1.17-1.5 2.76-2.24 1.59-.73 3.46-.73 1.86 0 3.47.73 1.61.74 2.79 2.24t1.85 3.79q.66 2.3.66 5.43m-4.2 0q0-2.59-.38-4.29t-1.02-2.71q-.63-1-1.46-1.41-.82-.4-1.71-.4-.88 0-1.7.4-.81.41-1.44 1.41-.63 1.01-1 2.71t-.37 4.29.37 4.29 1 2.71q.63 1 1.44 1.41.82.4 1.7.4.89 0 1.71-.4.83-.41 1.46-1.41.64-1.01 1.02-2.71t.38-4.29"/></svg>