<svg width="45" height="30" viewBox="0 0 45 30" fill="none" xmlns="http://www.w3.org/2000/svg">
<path d="M13.3 29.37C12.64 29.37 12.01 29.33 11.43 29.24C5.11999 28.32 0.369995 22.82 0.369995 16.44C0.369995 9.32 6.16999 3.52002 13.3 3.52002C13.66 3.52002 13.95 3.80998 13.95 4.16998V15.78H25.57C25.93 15.78 26.22 16.07 26.22 16.43C26.21 23.57 20.42 29.37 13.3 29.37ZM12.64 4.84998C6.53001 5.18998 1.66 10.26 1.66 16.45C1.66 22.18 5.93999 27.13 11.61 27.96C12.12 28.04 12.69 28.08 13.29 28.08C19.48 28.08 24.55 23.21 24.89 17.1H13.29C12.93 17.1 12.64 16.81 12.64 16.45V4.84998Z" fill="white"/>
<path d="M28.88 14.1H16.61C16.25 14.1 15.96 13.81 15.96 13.45V1.16998C15.96 0.809983 16.25 0.52002 16.61 0.52002C23.73 0.52002 29.53 6.32001 29.53 13.45C29.53 13.81 29.24 14.1 28.88 14.1ZM17.27 12.8H28.22C27.89 6.90999 23.16 2.17003 17.27 1.84003V12.8Z" fill="white"/>
<path d="M44.31 29.37H13.3C12.94 29.37 12.65 29.08 12.65 28.72C12.65 28.36 12.94 28.07 13.3 28.07H44.32C44.68 28.07 44.97 28.36 44.97 28.72C44.96 29.08 44.67 29.37 44.31 29.37Z" fill="white"/>
<path d="M31.63 28.91C31.27 28.91 30.98 28.62 30.98 28.26V17.64C30.98 17.28 31.27 16.99 31.63 16.99C31.99 16.99 32.28 17.28 32.28 17.64V28.26C32.28 28.62 31.99 28.91 31.63 28.91Z" fill="white"/>
<path d="M37.34 29.04C36.98 29.04 36.69 28.75 36.69 28.39V10.71C36.69 10.35 36.98 10.06 37.34 10.06C37.7 10.06 37.99 10.35 37.99 10.71V28.39C37.99 28.75 37.7 29.04 37.34 29.04Z" fill="white"/>
<path d="M42.94 28.99C42.58 28.99 42.29 28.7 42.29 28.34V13.54C42.29 13.18 42.58 12.89 42.94 12.89C43.3 12.89 43.59 13.18 43.59 13.54V28.34C43.59 28.7 43.3 28.99 42.94 28.99Z" fill="white"/>
</svg>
