<svg width="42" height="46" viewBox="0 0 42 46" fill="none" xmlns="http://www.w3.org/2000/svg">
<path d="M32.4601 27.91V27.93L31.7201 28.53V28.4L31.7801 28.47L32.4601 27.91Z" fill="white"/>
<path d="M32.4601 28.53V28.55L31.7201 29.16V29.04C31.7301 29.05 31.7401 29.05 31.7501 29.05C31.8101 29.05 31.8501 29.03 31.9001 28.99L32.4601 28.53Z" fill="white"/>
<path d="M16.3101 2.73999C15.6301 2.73999 15.08 3.29 15.08 3.97C15.08 4.65 15.6301 5.20999 16.3101 5.20999C16.9901 5.20999 17.55 4.65 17.55 3.97C17.55 3.29 16.9901 2.73999 16.3101 2.73999ZM16.3101 4.47C16.0401 4.47 15.8101 4.25 15.8101 3.97C15.8101 3.7 16.0401 3.47 16.3101 3.47C16.5901 3.47 16.8101 3.7 16.8101 3.97C16.8101 4.25 16.5901 4.47 16.3101 4.47Z" fill="white"/>
<path d="M26.9301 26.42C26.9201 26.42 26.9001 26.42 26.8801 26.43C26.8701 26.43 26.85 26.44 26.83 26.44L26.8201 26.45C26.8401 26.45 26.8701 26.44 26.8901 26.44C26.9201 26.43 26.9501 26.43 26.9701 26.42H26.9301ZM26.7001 26.48L26.6901 26.49C26.7101 26.49 26.7301 26.48 26.7501 26.47C26.7301 26.47 26.7201 26.48 26.7001 26.48Z" fill="white"/>
<path d="M26.9301 26.42C26.9201 26.42 26.9001 26.42 26.8801 26.43C26.8701 26.43 26.85 26.44 26.83 26.44L26.8201 26.45C26.8401 26.45 26.8701 26.44 26.8901 26.44C26.9201 26.43 26.9501 26.43 26.9701 26.42H26.9301ZM26.7001 26.48L26.6901 26.49C26.7101 26.49 26.7301 26.48 26.7501 26.47C26.7301 26.47 26.7201 26.48 26.7001 26.48ZM26.9301 26.42C26.9201 26.42 26.9001 26.42 26.8801 26.43C26.8701 26.43 26.85 26.44 26.83 26.44L26.8201 26.45C26.8401 26.45 26.8701 26.44 26.8901 26.44C26.9201 26.43 26.9501 26.43 26.9701 26.42H26.9301ZM26.7001 26.48L26.6901 26.49C26.7101 26.49 26.7301 26.48 26.7501 26.47C26.7301 26.47 26.7201 26.48 26.7001 26.48ZM26.9301 26.42C26.9201 26.42 26.9001 26.42 26.8801 26.43C26.8701 26.43 26.85 26.44 26.83 26.44L26.8201 26.45C26.8401 26.45 26.8701 26.44 26.8901 26.44C26.9201 26.43 26.9501 26.43 26.9701 26.42H26.9301ZM26.7001 26.48L26.6901 26.49C26.7101 26.49 26.7301 26.48 26.7501 26.47C26.7301 26.47 26.7201 26.48 26.7001 26.48ZM26.9301 26.42C26.9201 26.42 26.9001 26.42 26.8801 26.43C26.8701 26.43 26.85 26.44 26.83 26.44L26.8201 26.45C26.8401 26.45 26.8701 26.44 26.8901 26.44C26.9201 26.43 26.9501 26.43 26.9701 26.42H26.9301ZM26.7001 26.48L26.6901 26.49C26.7101 26.49 26.7301 26.48 26.7501 26.47C26.7301 26.47 26.7201 26.48 26.7001 26.48ZM26.9301 26.42C26.9201 26.42 26.9001 26.42 26.8801 26.43C26.8701 26.43 26.85 26.44 26.83 26.44L26.8201 26.45C26.8401 26.45 26.8701 26.44 26.8901 26.44C26.9201 26.43 26.9501 26.43 26.9701 26.42H26.9301ZM26.7001 26.48L26.6901 26.49C26.7101 26.49 26.7301 26.48 26.7501 26.47C26.7301 26.47 26.7201 26.48 26.7001 26.48ZM26.9301 26.42C26.9201 26.42 26.9001 26.42 26.8801 26.43C26.8701 26.43 26.85 26.44 26.83 26.44L26.8201 26.45C26.8401 26.45 26.8701 26.44 26.8901 26.44C26.9201 26.43 26.9501 26.43 26.9701 26.42H26.9301ZM26.7001 26.48L26.6901 26.49C26.7101 26.49 26.7301 26.48 26.7501 26.47C26.7301 26.47 26.7201 26.48 26.7001 26.48ZM26.9301 26.42C26.9201 26.42 26.9001 26.42 26.8801 26.43C26.8701 26.43 26.85 26.44 26.83 26.44L26.8201 26.45C26.8401 26.45 26.8701 26.44 26.8901 26.44C26.9201 26.43 26.9501 26.43 26.9701 26.42H26.9301ZM26.7001 26.48L26.6901 26.49C26.7101 26.49 26.7301 26.48 26.7501 26.47C26.7301 26.47 26.7201 26.48 26.7001 26.48ZM26.9301 26.42C26.9201 26.42 26.9001 26.42 26.8801 26.43C26.8701 26.43 26.85 26.44 26.83 26.44L26.8201 26.45C26.8401 26.45 26.8701 26.44 26.8901 26.44C26.9201 26.43 26.9501 26.43 26.9701 26.42H26.9301ZM26.7001 26.48L26.6901 26.49C26.7101 26.49 26.7301 26.48 26.7501 26.47C26.7301 26.47 26.7201 26.48 26.7001 26.48ZM26.9301 26.42C26.9201 26.42 26.9001 26.42 26.8801 26.43C26.8701 26.43 26.85 26.44 26.83 26.44L26.8201 26.45C26.8401 26.45 26.8701 26.44 26.8901 26.44C26.9201 26.43 26.9501 26.43 26.9701 26.42H26.9301ZM26.7001 26.48L26.6901 26.49C26.7101 26.49 26.7301 26.48 26.7501 26.47C26.7301 26.47 26.7201 26.48 26.7001 26.48ZM26.9301 26.42C26.9201 26.42 26.9001 26.42 26.8801 26.43C26.8701 26.43 26.85 26.44 26.83 26.44L26.8201 26.45C26.8401 26.45 26.8701 26.44 26.8901 26.44C26.9201 26.43 26.9501 26.43 26.9701 26.42H26.9301ZM26.7001 26.48L26.6901 26.49C26.7101 26.49 26.7301 26.48 26.7501 26.47C26.7301 26.47 26.7201 26.48 26.7001 26.48ZM26.7001 26.48L26.6901 26.49C26.7101 26.49 26.7301 26.48 26.7501 26.47C26.7301 26.47 26.7201 26.48 26.7001 26.48ZM26.9301 26.42C26.9201 26.42 26.9001 26.42 26.8801 26.43C26.8701 26.43 26.85 26.44 26.83 26.44L26.8201 26.45C26.8401 26.45 26.8701 26.44 26.8901 26.44C26.9201 26.43 26.9501 26.43 26.9701 26.42H26.9301ZM26.9301 26.42C26.9201 26.42 26.9001 26.42 26.8801 26.43C26.8701 26.43 26.85 26.44 26.83 26.44L26.8201 26.45C26.8401 26.45 26.8701 26.44 26.8901 26.44C26.9201 26.43 26.9501 26.43 26.9701 26.42H26.9301ZM26.7001 26.48L26.6901 26.49C26.7101 26.49 26.7301 26.48 26.7501 26.47C26.7301 26.47 26.7201 26.48 26.7001 26.48ZM26.7001 26.48L26.6901 26.49C26.7101 26.49 26.7301 26.48 26.7501 26.47C26.7301 26.47 26.7201 26.48 26.7001 26.48ZM26.9301 26.42C26.9201 26.42 26.9001 26.42 26.8801 26.43C26.8701 26.43 26.85 26.44 26.83 26.44L26.8201 26.45C26.8401 26.45 26.8701 26.44 26.8901 26.44C26.9201 26.43 26.9501 26.43 26.9701 26.42H26.9301ZM26.9301 26.42C26.9201 26.42 26.9001 26.42 26.8801 26.43C26.8701 26.43 26.85 26.44 26.83 26.44L26.8201 26.45C26.8401 26.45 26.8701 26.44 26.8901 26.44C26.9201 26.43 26.9501 26.43 26.9701 26.42H26.9301ZM26.7001 26.48L26.6901 26.49C26.7101 26.49 26.7301 26.48 26.7501 26.47C26.7301 26.47 26.7201 26.48 26.7001 26.48ZM26.7001 26.48L26.6901 26.49C26.7101 26.49 26.7301 26.48 26.7501 26.47C26.7301 26.47 26.7201 26.48 26.7001 26.48ZM26.9301 26.42C26.9201 26.42 26.9001 26.42 26.8801 26.43C26.8701 26.43 26.85 26.44 26.83 26.44L26.8201 26.45C26.8401 26.45 26.8701 26.44 26.8901 26.44C26.9201 26.43 26.9501 26.43 26.9701 26.42H26.9301ZM26.9301 26.42C26.9201 26.42 26.9001 26.42 26.8801 26.43C26.8701 26.43 26.85 26.44 26.83 26.44L26.8201 26.45C26.8401 26.45 26.8701 26.44 26.8901 26.44C26.9201 26.43 26.9501 26.43 26.9701 26.42H26.9301ZM26.7001 26.48L26.6901 26.49C26.7101 26.49 26.7301 26.48 26.7501 26.47C26.7301 26.47 26.7201 26.48 26.7001 26.48ZM26.9301 26.42C26.9201 26.42 26.9001 26.42 26.8801 26.43C26.8701 26.43 26.85 26.44 26.83 26.44L26.8201 26.45C26.8401 26.45 26.8701 26.44 26.8901 26.44C26.9201 26.43 26.9501 26.43 26.9701 26.42H26.9301ZM26.7001 26.48L26.6901 26.49C26.7101 26.49 26.7301 26.48 26.7501 26.47C26.7301 26.47 26.7201 26.48 26.7001 26.48ZM26.7001 26.48L26.6901 26.49C26.7101 26.49 26.7301 26.48 26.7501 26.47C26.7301 26.47 26.7201 26.48 26.7001 26.48ZM26.9301 26.42C26.9201 26.42 26.9001 26.42 26.8801 26.43C26.8701 26.43 26.85 26.44 26.83 26.44L26.8201 26.45C26.8401 26.45 26.8701 26.44 26.8901 26.44C26.9201 26.43 26.9501 26.43 26.9701 26.42H26.9301ZM26.9301 26.42C26.9201 26.42 26.9001 26.42 26.8801 26.43C26.8701 26.43 26.85 26.44 26.83 26.44L26.8201 26.45C26.8401 26.45 26.8701 26.44 26.8901 26.44C26.9201 26.43 26.9501 26.43 26.9701 26.42H26.9301ZM26.7001 26.48L26.6901 26.49C26.7101 26.49 26.7301 26.48 26.7501 26.47C26.7301 26.47 26.7201 26.48 26.7001 26.48ZM26.7001 26.48L26.6901 26.49C26.7101 26.49 26.7301 26.48 26.7501 26.47C26.7301 26.47 26.7201 26.48 26.7001 26.48ZM26.9301 26.42C26.9201 26.42 26.9001 26.42 26.8801 26.43C26.8701 26.43 26.85 26.44 26.83 26.44L26.8201 26.45C26.8401 26.45 26.8701 26.44 26.8901 26.44C26.9201 26.43 26.9501 26.43 26.9701 26.42H26.9301ZM26.9301 26.42C26.9201 26.42 26.9001 26.42 26.8801 26.43C26.8701 26.43 26.85 26.44 26.83 26.44L26.8201 26.45C26.8401 26.45 26.8701 26.44 26.8901 26.44C26.9201 26.43 26.9501 26.43 26.9701 26.42H26.9301ZM26.7001 26.48L26.6901 26.49C26.7101 26.49 26.7301 26.48 26.7501 26.47C26.7301 26.47 26.7201 26.48 26.7001 26.48ZM26.7001 26.48L26.6901 26.49C26.7101 26.49 26.7301 26.48 26.7501 26.47C26.7301 26.47 26.7201 26.48 26.7001 26.48ZM26.9301 26.42C26.9201 26.42 26.9001 26.42 26.8801 26.43C26.8701 26.43 26.85 26.44 26.83 26.44L26.8201 26.45C26.8401 26.45 26.8701 26.44 26.8901 26.44C26.9201 26.43 26.9501 26.43 26.9701 26.42H26.9301ZM26.9301 26.42C26.9201 26.42 26.9001 26.42 26.8801 26.43C26.8701 26.43 26.85 26.44 26.83 26.44L26.8201 26.45C26.8401 26.45 26.8701 26.44 26.8901 26.44C26.9201 26.43 26.9501 26.43 26.9701 26.42H26.9301ZM26.7001 26.48L26.6901 26.49C26.7101 26.49 26.7301 26.48 26.7501 26.47C26.7301 26.47 26.7201 26.48 26.7001 26.48ZM26.9301 26.42C26.9201 26.42 26.9001 26.42 26.8801 26.43C26.8701 26.43 26.85 26.44 26.83 26.44L26.8201 26.45C26.8401 26.45 26.8701 26.44 26.8901 26.44C26.9201 26.43 26.9501 26.43 26.9701 26.42H26.9301ZM26.7001 26.48L26.6901 26.49C26.7101 26.49 26.7301 26.48 26.7501 26.47C26.7301 26.47 26.7201 26.48 26.7001 26.48ZM26.9301 26.42C26.9201 26.42 26.9001 26.42 26.8801 26.43C26.8701 26.43 26.85 26.44 26.83 26.44L26.8201 26.45C26.8401 26.45 26.8701 26.44 26.8901 26.44C26.9201 26.43 26.9501 26.43 26.9701 26.42H26.9301ZM26.7001 26.48L26.6901 26.49C26.7101 26.49 26.7301 26.48 26.7501 26.47C26.7301 26.47 26.7201 26.48 26.7001 26.48ZM26.9301 26.42C26.9201 26.42 26.9001 26.42 26.8801 26.43C26.8701 26.43 26.85 26.44 26.83 26.44L26.8201 26.45C26.8401 26.45 26.8701 26.44 26.8901 26.44C26.9201 26.43 26.9501 26.43 26.9701 26.42H26.9301ZM26.7001 26.48L26.6901 26.49C26.7101 26.49 26.7301 26.48 26.7501 26.47C26.7301 26.47 26.7201 26.48 26.7001 26.48ZM26.9301 26.42C26.9201 26.42 26.9001 26.42 26.8801 26.43C26.8701 26.43 26.85 26.44 26.83 26.44L26.8201 26.45C26.8401 26.45 26.8701 26.44 26.8901 26.44C26.9201 26.43 26.9501 26.43 26.9701 26.42H26.9301ZM26.7001 26.48L26.6901 26.49C26.7101 26.49 26.7301 26.48 26.7501 26.47C26.7301 26.47 26.7201 26.48 26.7001 26.48ZM26.9301 26.42C26.9201 26.42 26.9001 26.42 26.8801 26.43C26.8701 26.43 26.85 26.44 26.83 26.44L26.8201 26.45C26.8401 26.45 26.8701 26.44 26.8901 26.44C26.9201 26.43 26.9501 26.43 26.9701 26.42H26.9301ZM26.7001 26.48L26.6901 26.49C26.7101 26.49 26.7301 26.48 26.7501 26.47C26.7301 26.47 26.7201 26.48 26.7001 26.48ZM26.9301 26.42C26.9201 26.42 26.9001 26.42 26.8801 26.43C26.8701 26.43 26.85 26.44 26.83 26.44L26.8201 26.45C26.8401 26.45 26.8701 26.44 26.8901 26.44C26.9201 26.43 26.9501 26.43 26.9701 26.42H26.9301ZM26.7001 26.48L26.6901 26.49C26.7101 26.49 26.7301 26.48 26.7501 26.47C26.7301 26.47 26.7201 26.48 26.7001 26.48ZM26.9301 26.42C26.9201 26.42 26.9001 26.42 26.8801 26.43C26.8701 26.43 26.85 26.44 26.83 26.44L26.8201 26.45C26.8401 26.45 26.8701 26.44 26.8901 26.44C26.9201 26.43 26.9501 26.43 26.9701 26.42H26.9301ZM26.7001 26.48L26.6901 26.49C26.7101 26.49 26.7301 26.48 26.7501 26.47C26.7301 26.47 26.7201 26.48 26.7001 26.48ZM26.9301 26.42C26.9201 26.42 26.9001 26.42 26.8801 26.43C26.8701 26.43 26.85 26.44 26.83 26.44L26.8201 26.45C26.8401 26.45 26.8701 26.44 26.8901 26.44C26.9201 26.43 26.9501 26.43 26.9701 26.42H26.9301ZM26.7001 26.48L26.6901 26.49C26.7101 26.49 26.7301 26.48 26.7501 26.47C26.7301 26.47 26.7201 26.48 26.7001 26.48ZM26.9301 26.42C26.9201 26.42 26.9001 26.42 26.8801 26.43C26.8701 26.43 26.85 26.44 26.83 26.44L26.8201 26.45C26.8401 26.45 26.8701 26.44 26.8901 26.44C26.9201 26.43 26.9501 26.43 26.9701 26.42H26.9301ZM26.7001 26.48L26.6901 26.49C26.7101 26.49 26.7301 26.48 26.7501 26.47C26.7301 26.47 26.7201 26.48 26.7001 26.48ZM26.9301 26.42C26.9201 26.42 26.9001 26.42 26.8801 26.43C26.8701 26.43 26.85 26.44 26.83 26.44L26.8201 26.45C26.8401 26.45 26.8701 26.44 26.8901 26.44C26.9201 26.43 26.9501 26.43 26.9701 26.42H26.9301ZM26.7001 26.48L26.6901 26.49C26.7101 26.49 26.7301 26.48 26.7501 26.47C26.7301 26.47 26.7201 26.48 26.7001 26.48Z" fill="white"/>
<path d="M41.2501 35.2L34.3701 27.47C34.0601 27.1 33.5401 27.04 33.1601 27.35L33.1401 27.37L32.4601 26.54V25.62C33.6901 24.18 34.5101 22.37 34.7001 20.35C34.9501 17.8 34.1901 15.31 32.5601 13.33C32.5301 13.29 32.5001 13.26 32.4601 13.22V7.92999C32.4601 6.64999 31.4101 5.60999 30.1401 5.60999H24.4601V5.17001C24.4601 4.14001 23.8601 3.32999 23.0901 3.32999H20.3801C19.4701 1.73999 17.9601 0.799988 16.3101 0.799988C14.6601 0.799988 13.1501 1.73999 12.2501 3.32999H9.53006C8.76006 3.32999 8.15005 4.14001 8.15005 5.17001V5.60999H2.74005C1.47005 5.60999 0.430054 6.64999 0.430054 7.92999V43.14C0.430054 44.42 1.47005 45.47 2.74005 45.47H30.1401C31.4101 45.47 32.4601 44.42 32.4601 43.14V31.58L37.4801 38.25C37.9301 38.8 38.5201 39.11 39.1901 39.17C39.2601 39.18 39.3401 39.19 39.4201 39.19C40.0201 39.19 40.5901 38.95 41.0301 38.56C41.4701 38.17 41.76 37.62 41.83 37.01C41.9 36.35 41.6601 35.65 41.2501 35.2ZM32.7501 27.67L32.4601 27.91V27.93L31.7201 28.53V28.4L30.7401 27.21C30.7801 27.18 30.8201 27.15 30.8501 27.12C30.8901 27.09 30.9301 27.07 30.9701 27.03C31.1801 26.87 31.38 26.7 31.58 26.53C31.62 26.49 31.6701 26.44 31.7201 26.41L32.4601 27.31L32.7501 27.67ZM32.2001 13.64C32.2901 13.75 32.3801 13.87 32.4601 13.98C33.8201 15.8 34.4401 18.02 34.2201 20.3C34.0601 22.01 33.4201 23.57 32.4601 24.84C32.3501 25 32.23 25.14 32.11 25.28C31.99 25.43 31.8601 25.57 31.7201 25.71V25.72L31.5601 25.89H31.55C31.54 25.9 31.5301 25.91 31.5201 25.93C31.5101 25.95 31.4901 25.95 31.4801 25.96C31.4501 25.99 31.4201 26.02 31.3901 26.04C31.3801 26.06 31.37 26.07 31.36 26.07C31.33 26.11 31.3001 26.15 31.2601 26.17C31.2301 26.19 31.2101 26.22 31.1801 26.23C31.1701 26.25 31.1701 26.25 31.1601 26.24C31.0801 26.33 30.9801 26.41 30.8901 26.47C30.8701 26.5 30.8501 26.52 30.8201 26.54C30.6501 26.68 30.4701 26.82 30.2901 26.93C30.2801 26.95 30.2701 26.95 30.2601 26.96C29.9301 27.17 29.5801 27.37 29.2201 27.56C29.0501 27.63 28.8901 27.71 28.7301 27.79C28.2301 28.01 27.7101 28.18 27.1901 28.29C26.9501 28.34 26.7101 28.39 26.4601 28.43C26.4501 28.42 26.4401 28.42 26.4401 28.43C25.7401 28.53 25.0101 28.55 24.2701 28.48C21.9501 28.25 19.9301 27.16 18.4701 25.57C18.3001 25.39 18.1501 25.21 17.9901 25.02C17.0401 23.8 16.3901 22.33 16.1501 20.76C16.1301 20.58 16.1101 20.39 16.1001 20.2C16.0401 19.66 16.0401 19.09 16.1001 18.53C16.1601 17.89 16.2901 17.28 16.4701 16.7C16.5001 16.6 16.5301 16.51 16.5701 16.42C16.6201 16.26 16.6801 16.1 16.7501 15.95C16.8201 15.76 16.9101 15.57 17.0101 15.38C17.4601 14.47 18.0501 13.65 18.7701 12.95C18.9801 12.74 19.2001 12.55 19.4201 12.36C19.6001 12.22 19.8101 12.08 20.0101 11.93C20.0201 11.93 20.0201 11.92 20.0301 11.92C20.0501 11.89 20.0901 11.88 20.1301 11.85C20.1901 11.81 20.25 11.78 20.3 11.74C20.38 11.68 20.4601 11.65 20.5301 11.6C20.5701 11.57 20.6101 11.55 20.6501 11.53C20.6901 11.51 20.7301 11.49 20.7701 11.46C20.8201 11.43 20.8601 11.42 20.9101 11.39C20.9601 11.36 21.02 11.32 21.08 11.29C21.11 11.27 21.1401 11.26 21.1701 11.25C21.1801 11.25 21.2001 11.24 21.2201 11.23C21.2801 11.19 21.3501 11.16 21.4201 11.14C21.4601 11.12 21.5101 11.1 21.5701 11.07C21.5801 11.07 21.5901 11.06 21.6001 11.06C21.6101 11.05 21.6301 11.05 21.6401 11.04H21.6701L21.6801 11.03C21.6901 11.03 21.6901 11.02 21.7001 11.02C21.7101 11.01 21.7201 11 21.7301 11C21.7501 10.99 21.7701 10.99 21.7901 10.99C21.8001 10.98 21.8001 10.98 21.8101 10.98C21.8101 10.97 21.82 10.97 21.83 10.97C21.84 10.97 21.8401 10.97 21.8501 10.96H21.8701C21.8801 10.96 21.8801 10.95 21.8801 10.95C21.8901 10.95 21.8901 10.95 21.9001 10.94C21.9101 10.94 21.9101 10.94 21.9201 10.93C22.0801 10.86 22.2401 10.81 22.4001 10.75C22.4301 10.74 22.4701 10.73 22.5101 10.73C22.5401 10.72 22.5701 10.71 22.5901 10.7C22.6101 10.69 22.6301 10.69 22.6601 10.68C22.8101 10.63 22.9901 10.59 23.1601 10.55C23.2001 10.54 23.2401 10.53 23.2801 10.52C23.3501 10.5 23.4201 10.5 23.4901 10.49C23.5501 10.47 23.6101 10.46 23.6701 10.45C23.8401 10.42 24.0101 10.39 24.1901 10.37C24.3801 10.35 24.5701 10.33 24.7701 10.33C25.1801 10.3 25.6101 10.31 26.0401 10.36C28.2301 10.58 30.2201 11.54 31.7201 13.1C31.8901 13.27 32.0401 13.46 32.2001 13.64ZM8.89008 5.17001C8.89008 4.52001 9.23006 4.06 9.53006 4.06H12.4601C12.6001 4.06 12.7201 3.99 12.7901 3.87C13.5501 2.41 14.8701 1.54001 16.3101 1.54001C17.7501 1.54001 19.0701 2.41 19.8401 3.87C19.9001 3.99 20.0201 4.06 20.1601 4.06H23.0901C23.3901 4.06 23.7301 4.52001 23.7301 5.17001V7.13H8.89008V5.17001ZM31.7201 43.14C31.7201 44.02 31.0101 44.73 30.1401 44.73H2.74005C1.87005 44.73 1.15005 44.02 1.15005 43.14V7.92999C1.15005 7.04999 1.87005 6.34 2.74005 6.34H8.15005V7.5C8.15005 7.7 8.32005 7.87 8.52005 7.87H24.1001C24.3001 7.87 24.4601 7.7 24.4601 7.5V6.34H30.1401C31.0101 6.34 31.7201 7.04999 31.7201 7.92999V12.44C30.1901 10.98 28.2301 10.09 26.0901 9.88C21.9501 9.48 18.1501 11.8 16.4701 15.38H6.86005C6.70005 15.38 6.58005 15.52 6.58005 15.67C6.58005 15.82 6.70005 15.95 6.86005 15.95H16.2201C15.9101 16.74 15.7001 17.6 15.6201 18.49C15.5601 19.07 15.5601 19.65 15.6001 20.2H6.86005C6.70005 20.2 6.58005 20.33 6.58005 20.48C6.58005 20.64 6.70005 20.76 6.86005 20.76H15.6601C15.8901 22.32 16.4901 23.77 17.3901 25.02H6.86005C6.70005 25.02 6.58005 25.14 6.58005 25.29C6.58005 25.45 6.70005 25.57 6.86005 25.57H17.8201C19.3801 27.43 21.6401 28.71 24.2301 28.96C24.5401 28.98 24.8601 29 25.1601 29C27.0501 29 28.8301 28.45 30.3401 27.48L31.4101 28.78L31.3901 28.8C31.2101 28.96 31.1 29.16 31.08 29.39C31.06 29.61 31.1201 29.83 31.2701 30L31.7201 30.59V43.14ZM39.2301 38.69C38.7001 38.65 38.2201 38.39 37.8501 37.96L32.4601 30.79L31.7201 29.81L31.6401 29.7C31.5801 29.63 31.5501 29.53 31.5601 29.43C31.5701 29.34 31.6101 29.24 31.7001 29.18L31.7201 29.16V29.04C31.7301 29.05 31.7401 29.05 31.7501 29.05C31.8101 29.05 31.8501 29.03 31.9001 28.99L32.4601 28.53V28.55L33.4601 27.73C33.5401 27.66 33.6301 27.63 33.7101 27.63C33.8201 27.63 33.9201 27.68 34.0101 27.78L40.8901 35.53C41.1801 35.84 41.36 36.34 41.36 36.8C41.36 36.85 41.3601 36.9 41.3501 36.96C41.2501 38 40.2801 38.8 39.2301 38.69Z" fill="white"/>
<path d="M26.7001 26.48L26.6901 26.49C26.7101 26.49 26.7301 26.48 26.7501 26.47C26.7301 26.47 26.7201 26.48 26.7001 26.48Z" fill="white"/>
<path d="M22.4001 10.75C22.2401 10.81 22.0801 10.86 21.9201 10.93C21.9501 10.93 21.9901 10.91 22.0201 10.9C22.1801 10.84 22.3401 10.78 22.5101 10.73C22.4701 10.73 22.4301 10.74 22.4001 10.75ZM21.2201 11.23C21.2001 11.24 21.1801 11.25 21.1701 11.25C21.1401 11.26 21.11 11.27 21.08 11.29C21.02 11.32 20.9601 11.36 20.9101 11.39C21.0201 11.33 21.1401 11.27 21.2601 11.22C21.2401 11.22 21.2301 11.23 21.2201 11.23ZM21.6401 11.04C21.6301 11.05 21.6101 11.05 21.6001 11.06C21.5901 11.06 21.5801 11.07 21.5701 11.07C21.5101 11.1 21.4601 11.12 21.4201 11.14C21.3901 11.15 21.3701 11.16 21.3501 11.18C21.4501 11.13 21.5601 11.08 21.6701 11.04H21.6401ZM21.6401 11.04C21.6301 11.05 21.6101 11.05 21.6001 11.06C21.5901 11.06 21.5801 11.07 21.5701 11.07C21.5101 11.1 21.4601 11.12 21.4201 11.14C21.3501 11.16 21.2801 11.19 21.2201 11.23C21.2001 11.24 21.1801 11.25 21.1701 11.25C21.1401 11.26 21.11 11.27 21.08 11.29C21.02 11.32 20.9601 11.36 20.9101 11.39C21.0201 11.33 21.1401 11.27 21.2601 11.22C21.2901 11.2 21.3201 11.19 21.3501 11.18C21.4501 11.13 21.5601 11.08 21.6701 11.04H21.6401ZM21.7301 11C21.7201 11 21.7101 11.01 21.7001 11.02C21.7301 11 21.7601 10.99 21.7901 10.99C21.7701 10.99 21.7501 10.99 21.7301 11ZM22.4001 10.75C22.2401 10.81 22.0801 10.86 21.9201 10.93C21.9501 10.93 21.9901 10.91 22.0201 10.9C22.1801 10.84 22.3401 10.78 22.5101 10.73C22.4701 10.73 22.4301 10.74 22.4001 10.75ZM24.1901 10.37C24.2601 10.37 24.3301 10.37 24.4001 10.36C24.5301 10.35 24.6501 10.34 24.7701 10.33C24.5701 10.33 24.3801 10.35 24.1901 10.37ZM27.1901 28.29C27.7101 28.18 28.2301 28.01 28.7301 27.79C28.2301 28 27.7101 28.17 27.1901 28.29ZM24.2701 28.48C25.0101 28.55 25.7401 28.53 26.4401 28.43C25.7401 28.52 25.0101 28.54 24.2701 28.48ZM21.6401 11.04C21.6301 11.05 21.6101 11.05 21.6001 11.06C21.5901 11.06 21.5801 11.07 21.5701 11.07C21.5101 11.1 21.4601 11.12 21.4201 11.14C21.3901 11.15 21.3701 11.16 21.3501 11.18C21.4501 11.13 21.5601 11.08 21.6701 11.04H21.6401ZM21.7301 11C21.7201 11 21.7101 11.01 21.7001 11.02C21.7301 11 21.7601 10.99 21.7901 10.99C21.7701 10.99 21.7501 10.99 21.7301 11Z" fill="white"/>
<path d="M21.7301 11C21.7201 11 21.7101 11.01 21.7001 11.02C21.7301 11 21.7601 10.99 21.7901 10.99C21.7701 10.99 21.7501 10.99 21.7301 11Z" fill="white"/>
<path d="M21.6401 11.04C21.6301 11.05 21.6101 11.05 21.6001 11.06C21.5901 11.06 21.5801 11.07 21.5701 11.07C21.5101 11.1 21.4601 11.12 21.4201 11.14C21.3901 11.15 21.3701 11.16 21.3501 11.18C21.4501 11.13 21.5601 11.08 21.6701 11.04H21.6401Z" fill="white"/>
<path d="M21.2601 11.22C21.1401 11.27 21.0201 11.33 20.9101 11.39C20.9601 11.36 21.02 11.32 21.08 11.29C21.11 11.27 21.1401 11.26 21.1701 11.25C21.1801 11.25 21.2001 11.24 21.2201 11.23C21.2301 11.23 21.2401 11.22 21.2601 11.22Z" fill="white"/>
<path d="M22.5101 10.73C22.3401 10.78 22.1801 10.84 22.0201 10.9C21.9901 10.91 21.9501 10.93 21.9201 10.93C22.0801 10.86 22.2401 10.81 22.4001 10.75C22.4301 10.74 22.4701 10.73 22.5101 10.73Z" fill="white"/>
<path d="M26.7501 26.47C26.7301 26.48 26.7101 26.49 26.6901 26.49L26.7001 26.48C26.7201 26.48 26.7301 26.47 26.7501 26.47Z" fill="white"/>
<path d="M26.9301 26.42C26.9201 26.43 26.9001 26.43 26.8901 26.44C26.8701 26.44 26.8401 26.45 26.8201 26.45L26.83 26.44C26.85 26.44 26.8701 26.43 26.8801 26.43C26.9001 26.42 26.9201 26.42 26.9301 26.42Z" fill="white"/>
<path d="M31.7801 28.47L31.7201 28.4V28.53L32.4601 27.93V27.91L31.7801 28.47Z" fill="white"/>
<path d="M31.9001 28.99C31.8501 29.03 31.8101 29.05 31.7501 29.05C31.7401 29.05 31.7301 29.05 31.7201 29.04V29.16L32.4601 28.55V28.53L31.9001 28.99Z" fill="white"/>
<path d="M31.9001 28.99C31.8501 29.03 31.8101 29.05 31.7501 29.05C31.7401 29.05 31.7301 29.05 31.7201 29.04V29.16L32.4601 28.55V28.53L31.9001 28.99Z" fill="white"/>
<path d="M31.7801 28.47L31.7201 28.4V28.53L32.4601 27.93V27.91L31.7801 28.47Z" fill="white"/>
<path d="M26.9101 39.09H25.4601C25.2501 38.14 24.8901 37.24 24.4101 36.4L25.3901 35.42C25.8501 34.96 25.8501 34.22 25.3901 33.77L23.7201 32.09C23.2801 31.65 22.5101 31.65 22.0701 32.09L21.1401 33.02C20.2901 32.49 19.3701 32.1 18.4001 31.85V30.57C18.4001 29.93 17.8701 29.4 17.2301 29.4H14.8701C14.2201 29.4 13.7001 29.93 13.7001 30.57V31.85C12.7201 32.1 11.8001 32.49 10.9501 33.02L10.0301 32.09C9.59006 31.65 8.81006 31.65 8.37006 32.09L6.70007 33.76C6.24007 34.22 6.24007 34.96 6.70007 35.42L7.68005 36.4C7.20005 37.25 6.85007 38.15 6.63007 39.09H5.18005C4.54005 39.09 4.01007 39.62 4.01007 40.26V41.11C4.01007 41.29 4.15005 41.43 4.33005 41.43H20.7601C20.7701 41.43 20.7701 41.43 20.7701 41.43H27.7701C27.9401 41.43 28.0901 41.29 28.0901 41.11V40.26C28.0901 39.62 27.5601 39.09 26.9101 39.09ZM11.6801 40.79C12.0001 38.66 13.85 37.03 16.05 37.03C18.24 37.03 20.1001 38.66 20.4101 40.79H11.6801ZM27.4501 40.79H21.05C20.73 38.3 18.59 36.39 16.05 36.39C13.5 36.39 11.36 38.3 11.05 40.79H4.65005V40.26C4.65005 39.97 4.89005 39.73 5.18005 39.73H6.89008C7.04008 39.73 7.17007 39.62 7.20007 39.47C7.41007 38.43 7.80005 37.44 8.36005 36.52C8.43005 36.39 8.41006 36.23 8.31006 36.13L7.15005 34.97C6.94005 34.76 6.94005 34.42 7.15005 34.21L8.82007 32.54C9.02007 32.34 9.38005 32.34 9.58005 32.54L10.6801 33.65C10.7901 33.76 10.96 33.77 11.08 33.69C12 33.09 13.0101 32.66 14.0901 32.42C14.2301 32.38 14.33 32.25 14.33 32.11V30.57C14.33 30.28 14.5701 30.04 14.8701 30.04H17.2301C17.5201 30.04 17.7601 30.28 17.7601 30.57V32.11C17.7601 32.25 17.8701 32.38 18.0101 32.42C19.0901 32.66 20.0901 33.09 21.0101 33.69C21.1401 33.78 21.3101 33.76 21.4101 33.65L22.5201 32.54C22.7201 32.34 23.0801 32.35 23.2801 32.54L24.9401 34.21C25.1501 34.42 25.1501 34.76 24.9401 34.97L23.7801 36.13C23.6801 36.23 23.6601 36.39 23.7401 36.52C24.3001 37.43 24.6801 38.42 24.8901 39.47C24.9201 39.62 25.0501 39.73 25.2001 39.73H26.9101C27.2101 39.73 27.4501 39.97 27.4501 40.26V40.79Z" fill="white"/>
<path d="M20.4701 24.92C20.5101 24.96 20.54 24.99 20.58 25.02H20.6001C20.5501 24.99 20.5101 24.95 20.4701 24.92Z" fill="white"/>
<path d="M32.4601 16.92C32.2701 16.37 32.0301 15.84 31.7201 15.35C30.4901 13.38 28.4001 11.98 25.9101 11.74C22.8701 11.44 20.08 12.96 18.58 15.38C18.47 15.57 18.3701 15.76 18.2701 15.95C17.8501 16.78 17.5701 17.69 17.4801 18.67C17.4501 18.92 17.4401 19.18 17.4401 19.43C17.4401 19.69 17.4501 19.95 17.4901 20.2C17.5001 20.39 17.5201 20.58 17.5601 20.76C17.8501 22.41 18.6601 23.89 19.8501 25.02C20.0601 25.22 20.2801 25.4 20.5101 25.57C21.6101 26.41 22.9401 26.95 24.4101 27.1C24.6601 27.12 24.9101 27.13 25.1701 27.13C26.9501 27.13 28.65 26.52 30.05 25.37C30.72 24.82 31.2901 24.17 31.7201 23.46C32.0401 22.97 32.2701 22.45 32.4601 21.9C32.6601 21.34 32.7801 20.76 32.8401 20.17C32.9601 19.04 32.8101 17.93 32.4601 16.92ZM20.58 25.02C20.54 24.99 20.5101 24.96 20.4701 24.92C20.5101 24.95 20.5501 24.99 20.6001 25.02H20.58ZM32.36 20.13C32.27 20.94 32.0601 21.73 31.7201 22.45C31.2801 23.42 30.6101 24.3 29.7401 25C29.2601 25.41 28.7201 25.74 28.1501 25.99C27.7701 26.17 27.3801 26.31 26.9701 26.42C26.9501 26.43 26.9201 26.43 26.8901 26.44C26.8701 26.44 26.8401 26.45 26.8201 26.45C26.7901 26.46 26.7701 26.47 26.7501 26.47C26.7301 26.48 26.7101 26.49 26.6901 26.49C26.3001 26.57 25.9101 26.62 25.5101 26.64C25.4201 26.65 25.3301 26.65 25.2401 26.65C24.9801 26.65 24.7101 26.64 24.4501 26.62C24.3001 26.61 24.1501 26.59 24.0001 26.55C23.8901 26.54 23.7801 26.52 23.6701 26.5C23.5201 26.47 23.3601 26.43 23.2101 26.39C23.0801 26.35 22.95 26.31 22.83 26.26C22.56 26.18 22.3 26.07 22.05 25.94C21.98 25.91 21.9101 25.87 21.8401 25.84H27.5201C27.8101 25.84 28.0301 25.6 28.0301 25.29C28.0301 25 27.8001 24.76 27.5201 24.76H20.2901C20.2601 24.74 20.2301 24.71 20.2101 24.69C20.0801 24.57 19.9601 24.44 19.8401 24.31L19.7701 24.24C19.6401 24.09 19.5101 23.93 19.3801 23.76C19.2701 23.62 19.17 23.47 19.08 23.32C18.92 23.08 18.7801 22.83 18.6501 22.57C18.5601 22.39 18.4801 22.2 18.4101 22.01C18.3401 21.84 18.2701 21.66 18.2301 21.49C18.2101 21.43 18.2001 21.37 18.1801 21.31C18.1501 21.22 18.1201 21.12 18.1001 21.03H27.5101C27.8001 21.03 28.0401 20.78 28.0401 20.48C28.0401 20.19 27.7901 19.94 27.5101 19.94H17.9501C17.9101 19.54 17.9201 19.13 17.9601 18.72C18.0101 18.19 18.1201 17.68 18.2901 17.19C18.3401 17 18.4101 16.82 18.4901 16.64C18.5001 16.59 18.5201 16.54 18.5601 16.49C18.6001 16.39 18.6401 16.31 18.6901 16.22H27.5101C27.7901 16.22 28.0401 15.97 28.0401 15.67C28.0401 15.37 27.7901 15.12 27.5101 15.12H19.36C19.53 14.88 19.7201 14.65 19.9301 14.44C20.0501 14.3 20.1801 14.18 20.3101 14.06C20.4201 13.96 20.5301 13.86 20.6501 13.78C20.7501 13.69 20.8501 13.61 20.9601 13.54C21.2901 13.29 21.6501 13.08 22.0201 12.9C22.1901 12.82 22.3601 12.74 22.5301 12.68C22.7001 12.61 22.8701 12.55 23.0401 12.5C23.1401 12.47 23.2401 12.44 23.3401 12.42C23.7301 12.31 24.13 12.24 24.55 12.21C24.75 12.19 24.9501 12.18 25.1601 12.18C25.3901 12.18 25.63 12.19 25.86 12.22C28.5 12.48 30.6701 14.14 31.7201 16.39C32.2501 17.52 32.49 18.8 32.36 20.13Z" fill="white"/>
</svg>
