<svg width="41" height="39" viewBox="0 0 41 39" fill="none" xmlns="http://www.w3.org/2000/svg">
<path d="M27.5 33.53H27.49H13.43C13.32 33.53 13.22 33.48 13.15 33.39C13.09 33.3 13.07 33.19 13.11 33.08L13.79 31.2C13.84 31.07 13.96 30.98 14.11 30.98H26.81C26.95 30.98 27.08 31.07 27.13 31.2L27.78 33.01C27.82 33.06 27.84 33.13 27.84 33.2C27.84 33.38 27.69 33.53 27.5 33.53ZM13.91 32.86H27.01L26.57 31.65H14.34L13.91 32.86Z" fill="white"/>
<path d="M31.3 38.69H29.35C29.21 38.69 29.08 38.6 29.03 38.47L25.13 27.66C25.09 27.56 25.11 27.44 25.17 27.35C25.23 27.26 25.34 27.21 25.44 27.21H27.42C27.56 27.21 27.69 27.3 27.74 27.43L31.61 38.24C31.65 38.34 31.63 38.46 31.57 38.55C31.51 38.64 31.41 38.69 31.3 38.69ZM29.59 38.02H30.82L27.19 27.88H25.93L29.59 38.02Z" fill="white"/>
<path d="M11.57 38.69H9.61999C9.50999 38.69 9.41 38.64 9.35 38.55C9.29 38.46 9.26999 38.35 9.30999 38.24L13.18 27.43C13.23 27.3 13.35 27.21 13.5 27.21H15.48C15.59 27.21 15.69 27.26 15.76 27.35C15.82 27.44 15.84 27.55 15.8 27.66L11.9 38.47C11.84 38.6 11.71 38.69 11.57 38.69ZM10.1 38.02H11.33L14.99 27.88H13.73L10.1 38.02Z" fill="white"/>
<path d="M36.46 27.88H4.45999C2.65999 27.88 1.29999 26.52 1.29999 24.72V4.95001C1.29999 4.76001 1.45001 4.60999 1.64001 4.60999H39.29C39.48 4.60999 39.63 4.76001 39.63 4.95001V24.72C39.62 26.52 38.26 27.88 36.46 27.88ZM1.97 5.28998V24.72C1.97 26.14 3.03999 27.21 4.45999 27.21H36.46C37.88 27.21 38.95 26.14 38.95 24.72V5.28998H1.97Z" fill="white"/>
<path d="M40.58 5.28998H0.350006C0.160006 5.28998 0.0100098 5.14001 0.0100098 4.95001V3.07001C0.0100098 2.88001 0.160006 2.72998 0.350006 2.72998H40.58C40.77 2.72998 40.92 2.88001 40.92 3.07001V4.95001C40.91 5.14001 40.76 5.28998 40.58 5.28998ZM0.690002 4.62H40.24V3.40997H0.690002V4.62Z" fill="white"/>
<path d="M21.4 3.40997H19.52C19.33 3.40997 19.18 3.26001 19.18 3.07001V2.13C19.18 1.38 19.71 0.849976 20.46 0.849976C21.21 0.849976 21.74 1.37 21.74 2.13L21.73 3.07001C21.74 3.26001 21.59 3.40997 21.4 3.40997ZM19.85 2.72998H21.06V2.12C21.06 1.74 20.83 1.52002 20.45 1.52002C20.07 1.52002 19.84 1.75 19.84 2.12V2.72998H19.85Z" fill="white"/>
<path d="M39.16 24.78L38.48 24.77C37.92 24.76 37.47 24.3 37.47 23.75L37.48 22.66C36.77 22.49 36.08 22.22 35.44 21.85L34.7 22.59C34.51 22.78 34.25 22.88 33.98 22.88H33.97C33.7 22.88 33.45 22.77 33.26 22.58L31.93 21.24C31.74 21.05 31.64 20.79 31.64 20.52C31.64 20.25 31.75 19.99 31.94 19.8L32.64 19.11C32.24 18.45 31.95 17.75 31.76 17.01H30.8C30.24 17 29.79 16.55 29.79 15.99L29.81 14.1C29.81 13.83 29.92 13.58 30.11 13.39C30.3 13.2 30.57 13.1 30.83 13.1L31.78 13.11C31.97 12.37 32.28 11.67 32.68 11.02L31.99 10.32C31.6 9.92001 31.6 9.28 32 8.88L33.34 7.56C33.53 7.37 33.79 7.27002 34.06 7.27002C34.33 7.27002 34.59 7.38001 34.78 7.57001L35.51 8.31C36.16 7.95 36.85 7.69002 37.56 7.52002L37.57 6.41998C37.57 6.14998 37.68 5.90002 37.87 5.71002C38.06 5.52002 38.34 5.41998 38.59 5.41998L39.26 5.42999C39.45 5.42999 39.6 5.58002 39.59 5.77002C39.59 5.95002 39.44 6.09998 39.25 6.09998L38.58 6.09003C38.51 6.10003 38.4 6.12 38.34 6.19C38.27 6.25 38.24 6.33999 38.24 6.42999L38.23 7.79999C38.23 7.95999 38.11 8.1 37.96 8.13C37.14 8.28 36.36 8.59002 35.63 9.02002C35.5 9.10002 35.33 9.07997 35.22 8.96997L34.3 8.03998C34.24 7.97998 34.15 7.94 34.06 7.94C33.97 7.94 33.88 7.97998 33.82 8.03998L32.49 9.35999C32.35 9.49999 32.35 9.71998 32.48 9.84998L33.36 10.74C33.47 10.85 33.49 11.03 33.4 11.16C32.91 11.88 32.57 12.67 32.38 13.52C32.35 13.67 32.21 13.78 32.05 13.78L30.83 13.77C30.75 13.77 30.65 13.8 30.58 13.87C30.52 13.93 30.48 14.02 30.48 14.11L30.46 16C30.46 16.19 30.62 16.34 30.81 16.34L32.03 16.35C32.19 16.35 32.32 16.46 32.36 16.62C32.54 17.46 32.87 18.26 33.35 18.99C33.44 19.12 33.42 19.3 33.3 19.41L32.41 20.29C32.35 20.35 32.31 20.44 32.31 20.53C32.31 20.62 32.34 20.71 32.41 20.78L33.74 22.12C33.8 22.18 33.89 22.22 33.98 22.22C34.07 22.22 34.16 22.19 34.22 22.12L35.15 21.2C35.26 21.09 35.43 21.07 35.56 21.15C36.28 21.6 37.07 21.91 37.88 22.07C38.04 22.1 38.15 22.24 38.15 22.4L38.14 23.76C38.14 23.95 38.29 24.11 38.48 24.11L39.16 24.12C39.35 24.12 39.49 24.27 39.49 24.46C39.5 24.63 39.35 24.78 39.16 24.78Z" fill="white"/>
<path d="M39.23 19.19C39.22 19.19 39.21 19.19 39.2 19.19C37.04 19.03 35.37 17.22 35.38 15.07C35.4 12.92 37.1 11.13 39.25 11C39.43 10.99 39.6 11.13 39.61 11.31C39.62 11.5 39.48 11.66 39.3 11.67C37.5 11.79 36.07 13.28 36.06 15.08C36.05 16.88 37.46 18.39 39.26 18.53C39.44 18.54 39.58 18.71 39.57 18.89C39.55 19.06 39.4 19.19 39.23 19.19Z" fill="white"/>
<path d="M10.19 23.35C6.56 23.35 3.60999 20.4 3.60999 16.77C3.60999 13.14 6.56 10.19 10.19 10.19C10.38 10.19 10.53 10.34 10.53 10.53V16.44H16.44C16.63 16.44 16.78 16.59 16.78 16.78C16.78 20.4 13.82 23.35 10.19 23.35ZM9.85999 10.87C6.75999 11.05 4.29001 13.62 4.29001 16.77C4.29001 20.03 6.94001 22.68 10.2 22.68C13.35 22.68 15.92 20.21 16.1 17.11H10.2C10.01 17.11 9.85999 16.96 9.85999 16.77V10.87Z" fill="white"/>
<path d="M17.48 16.07H11.23C11.04 16.07 10.89 15.92 10.89 15.73V9.47998C10.89 9.28998 11.04 9.14001 11.23 9.14001C14.86 9.14001 17.81 12.09 17.81 15.72C17.82 15.92 17.67 16.07 17.48 16.07ZM11.57 15.4H17.13C16.96 12.41 14.56 10 11.57 9.84003V15.4Z" fill="white"/>
<path d="M27.56 23.34H9.98001C9.79001 23.34 9.64001 23.19 9.64001 23C9.64001 22.81 9.79001 22.66 9.98001 22.66H27.56C27.75 22.66 27.9 22.81 27.9 23C27.89 23.19 27.74 23.34 27.56 23.34Z" fill="white"/>
<path d="M27.56 20.71H15.28C15.09 20.71 14.94 20.56 14.94 20.37C14.94 20.18 15.09 20.03 15.28 20.03H27.56C27.75 20.03 27.9 20.18 27.9 20.37C27.9 20.56 27.74 20.71 27.56 20.71Z" fill="white"/>
<path d="M27.56 18.44H16.44C16.25 18.44 16.1 18.29 16.1 18.1C16.1 17.91 16.25 17.76 16.44 17.76H27.56C27.75 17.76 27.9 17.91 27.9 18.1C27.89 18.29 27.74 18.44 27.56 18.44Z" fill="white"/>
<path d="M27.56 16.07H16.44C16.25 16.07 16.1 15.92 16.1 15.73C16.1 15.54 16.25 15.39 16.44 15.39H27.56C27.75 15.39 27.9 15.54 27.9 15.73C27.89 15.92 27.74 16.07 27.56 16.07Z" fill="white"/>
<path d="M27.56 13.76H17.02C16.83 13.76 16.68 13.61 16.68 13.42C16.68 13.23 16.83 13.08 17.02 13.08H27.56C27.75 13.08 27.9 13.23 27.9 13.42C27.89 13.61 27.74 13.76 27.56 13.76Z" fill="white"/>
<path d="M27.56 11.36H15.27C15.08 11.36 14.93 11.21 14.93 11.02C14.93 10.83 15.08 10.68 15.27 10.68H27.56C27.75 10.68 27.9 10.83 27.9 11.02C27.89 11.21 27.74 11.36 27.56 11.36Z" fill="white"/>
</svg>
