<svg width="43" height="43" viewBox="0 0 43 43" fill="none" xmlns="http://www.w3.org/2000/svg">
<path d="M5.70996 11.56H23.29C23.58 11.56 23.81 11.33 23.81 11.04C23.81 10.75 23.58 10.52 23.29 10.52H5.70996C5.41996 10.52 5.18997 10.75 5.18997 11.04C5.18997 11.32 5.41996 11.56 5.70996 11.56Z" fill="white"/>
<path d="M23.29 24.9H5.70996C5.41996 24.9 5.18997 25.13 5.18997 25.42C5.18997 25.71 5.41996 25.94 5.70996 25.94H23.29C23.58 25.94 23.81 25.71 23.81 25.42C23.81 25.14 23.58 24.9 23.29 24.9Z" fill="white"/>
<path d="M41.6 1.56C41.59 1.55 41.58 1.53002 41.57 1.52002C40.89 0.84002 40.14 0.5 39.34 0.5C38.1 0.51 37.21 1.37 37.15 1.44L30.37 8.21997C30.27 8.31997 30.22 8.45003 30.22 8.59003C30.22 8.64003 30.23 8.67997 30.24 8.71997L29.84 9.12L29.65 8.94L28.94 9.65002V0.349976H0.0999756V33.04H28.94V18.59L34.13 13.41L33.95 13.23L34.35 12.83C34.39 12.84 34.44 12.85 34.48 12.85C34.61 12.85 34.75 12.8 34.85 12.7L41.54 6.01001C41.58 5.97001 42.55 5.02998 42.57 3.72998C42.56 2.94998 42.24 2.23 41.6 1.56ZM27.88 19.65V32.01H1.11996V1.40997H27.88V10.71L22.05 16.53L22.47 16.95L22.33 17.77H5.70996C5.41996 17.77 5.18997 18 5.18997 18.29C5.18997 18.58 5.41996 18.81 5.70996 18.81H22.15L21.71 21.37L26.12 20.61L26.52 21.01L27.88 19.65ZM23.06 20.85L22.09 21.03L22.02 21.04L22.2 19.99L22.43 20.22L22.92 17.4L25.67 20.15L22.85 20.64L23.06 20.85ZM26.52 19.53L23.52 16.53L29.63 10.42L32.63 13.42L26.52 19.53ZM33.37 13.05L30 9.67999L30.35 9.33002L33.71 12.69L33.37 13.05ZM40.78 5.27002L34.45 11.6L31.45 8.59998L37.87 2.19C37.88 2.18 38.51 1.57 39.33 1.56C39.84 1.56 40.33 1.79001 40.81 2.26001C40.82 2.27001 40.83 2.27998 40.84 2.28998C41.29 2.73998 41.51 3.21997 41.5 3.71997C41.49 4.56997 40.8 5.25002 40.78 5.27002Z" fill="white"/>
<path d="M30.34 6.89001C30.52 7.07001 30.81 7.07001 30.99 6.89001L35.8 2.08001C35.98 1.90001 35.98 1.60998 35.8 1.42998L35.79 1.41997C35.61 1.23997 35.32 1.23997 35.14 1.41997L30.33 6.22997C30.15 6.40997 30.15 6.70001 30.34 6.89001Z" fill="white"/>
<path d="M33.51 37.81H3.90997V32.48H4.90997V36.81H32.51V13.97H33.51V37.81Z" fill="white"/>
<path d="M38.11 42.83H8.50998V37.5H9.50998V41.83H37.11V9.14001H38.11V42.83Z" fill="white"/>
<path d="M33.01 5.48999H28.44V6.48999H33.01V5.48999Z" fill="white"/>
</svg>
